<?xml version="1.0" encoding="UTF-8"?>
<svg width="512" height="512" viewBox="0 0 512 512" fill="none" xmlns="http://www.w3.org/2000/svg">
  <path d="M352 200V464H160V200C160 186.7 170.7 176 184 176H328C341.3 176 352 186.7 352 200Z" fill="#F2A900"/>
  <path d="M352 200V464H256V176H328C341.3 176 352 186.7 352 200Z" fill="#FF8C00"/>
  <path d="M384 464H128C119.2 464 112 471.2 112 480C112 488.8 119.2 496 128 496H384C392.8 496 400 488.8 400 480C400 471.2 392.8 464 384 464Z" fill="#8B4513"/>
  <path d="M384 464H256V496H384C392.8 496 400 488.8 400 480C400 471.2 392.8 464 384 464Z" fill="#6B3000"/>
  <path d="M368 224H336C327.2 224 320 231.2 320 240V272C320 280.8 327.2 288 336 288H368C376.8 288 384 280.8 384 272V240C384 231.2 376.8 224 368 224Z" fill="#FFFFFF"/>
  <path d="M176 224H144C135.2 224 128 231.2 128 240V272C128 280.8 135.2 288 144 288H176C184.8 288 192 280.8 192 272V240C192 231.2 184.8 224 176 224Z" fill="#FFFFFF"/>
  <path d="M368 320H336C327.2 320 320 327.2 320 336V368C320 376.8 327.2 384 336 384H368C376.8 384 384 376.8 384 368V336C384 327.2 376.8 320 368 320Z" fill="#FFFFFF"/>
  <path d="M176 320H144C135.2 320 128 327.2 128 336V368C128 376.8 135.2 384 144 384H176C184.8 384 192 376.8 192 368V336C192 327.2 184.8 320 176 320Z" fill="#FFFFFF"/>
  <path d="M272 320H240C231.2 320 224 327.2 224 336V368C224 376.8 231.2 384 240 384H272C280.8 384 288 376.8 288 368V336C288 327.2 280.8 320 272 320Z" fill="#FFFFFF"/>
  <path d="M272 320H256V384H272C280.8 384 288 376.8 288 368V336C288 327.2 280.8 320 272 320Z" fill="#F5F5F5"/>
  <path d="M272 224H240C231.2 224 224 231.2 224 240V272C224 280.8 231.2 288 240 288H272C280.8 288 288 280.8 288 272V240C288 231.2 280.8 224 272 224Z" fill="#FFFFFF"/>
  <path d="M272 224H256V288H272C280.8 288 288 280.8 288 272V240C288 231.2 280.8 224 272 224Z" fill="#F5F5F5"/>
  <path d="M352 176H160C142.3 176 128 161.7 128 144V128C128 110.3 142.3 96 160 96H352C369.7 96 384 110.3 384 128V144C384 161.7 369.7 176 352 176Z" fill="#FFFFFF"/>
  <path d="M352 96H256V176H352C369.7 176 384 161.7 384 144V128C384 110.3 369.7 96 352 96Z" fill="#F5F5F5"/>
  <path d="M336 96H176C167.2 96 160 88.8 160 80V64C160 55.2 167.2 48 176 48H336C344.8 48 352 55.2 352 64V80C352 88.8 344.8 96 336 96Z" fill="#F2A900"/>
  <path d="M336 48H256V96H336C344.8 96 352 88.8 352 80V64C352 55.2 344.8 48 336 48Z" fill="#FF8C00"/>
  <path d="M304 48H208C199.2 48 192 40.8 192 32V16C192 7.2 199.2 0 208 0H304C312.8 0 320 7.2 320 16V32C320 40.8 312.8 48 304 48Z" fill="#FFFFFF"/>
  <path d="M304 0H256V48H304C312.8 48 320 40.8 320 32V16C320 7.2 312.8 0 304 0Z" fill="#F5F5F5"/>
  <!-- Bubbles -->
  <circle cx="176" cy="144" r="8" fill="#FFFFFF" opacity="0.7"/>
  <circle cx="208" cy="128" r="6" fill="#FFFFFF" opacity="0.7"/>
  <circle cx="240" cy="144" r="10" fill="#FFFFFF" opacity="0.7"/>
  <circle cx="272" cy="128" r="7" fill="#FFFFFF" opacity="0.7"/>
  <circle cx="304" cy="144" r="9" fill="#FFFFFF" opacity="0.7"/>
  <circle cx="336" cy="128" r="5" fill="#FFFFFF" opacity="0.7"/>
</svg>

